<?xml version="1.0" standalone="no"?>
<!DOCTYPE svg PUBLIC "-//W3C//DTD SVG 20010904//EN"
 "http://www.w3.org/TR/2001/REC-SVG-20010904/DTD/svg10.dtd">
<svg version="1.0" xmlns="http://www.w3.org/2000/svg"
 width="306.000000pt" height="306.000000pt" viewBox="0 0 306.000000 306.000000"
 preserveAspectRatio="xMidYMid meet">
<metadata>
Created by potrace 1.14, written by Peter Selinger 2001-2017
</metadata>
<g transform="translate(0.000000,306.000000) scale(0.100000,-0.100000)"
fill="#000000" stroke="none">
<path d="M1620 2970 l0 -90 -90 0 -90 0 0 -90 0 -90 -90 0 -90 0 0 -90 0 -90
-90 0 -90 0 0 -180 0 -180 -180 0 -180 0 0 90 0 90 -180 0 -180 0 0 -270 0
-270 90 0 90 0 0 -90 0 -90 90 0 90 0 0 -90 0 -90 -90 0 -90 0 0 -90 0 -90
-90 0 -90 0 0 -90 0 -90 -90 0 -90 0 0 -90 0 -90 -90 0 -90 0 0 -90 0 -90 90
0 90 0 0 -90 0 -90 180 0 180 0 0 -180 0 -180 90 0 90 0 0 -90 0 -90 90 0 90
0 0 90 0 90 90 0 90 0 0 90 0 90 90 0 90 0 0 90 0 90 90 0 90 0 0 90 0 90 90
0 90 0 0 -90 0 -90 90 0 90 0 0 -90 0 -90 270 0 270 0 0 180 0 180 -90 0 -90
0 0 180 0 180 180 0 180 0 0 90 0 90 90 0 90 0 0 90 0 90 90 0 90 0 0 90 0 90
90 0 90 0 0 360 0 360 -90 0 -90 0 0 90 0 90 -90 0 -90 0 0 90 0 90 -90 0 -90
0 0 90 0 90 -90 0 -90 0 0 90 0 90 -360 0 -360 0 0 -90z m720 -180 l0 -90 90
0 90 0 0 -90 0 -90 90 0 90 0 0 -90 0 -90 90 0 90 0 0 -360 0 -360 -90 0 -90
0 0 -90 0 -90 -90 0 -90 0 0 -90 0 -90 -360 0 -360 0 0 -90 0 -90 90 0 90 0 0
-90 0 -90 -270 0 -270 0 0 -90 0 -90 -180 0 -180 0 0 -180 0 -180 -90 0 -90 0
0 -90 0 -90 -90 0 -90 0 0 180 0 180 -90 0 -90 0 0 90 0 90 -180 0 -180 0 0
90 0 90 90 0 90 0 0 90 0 90 180 0 180 0 0 180 0 180 90 0 90 0 0 270 0 270
90 0 90 0 0 -90 0 -90 90 0 90 0 0 360 0 360 90 0 90 0 0 90 0 90 90 0 90 0 0
90 0 90 360 0 360 0 0 -90z m-1620 -810 l0 -180 -90 0 -90 0 0 180 0 180 90 0
90 0 0 -180z m1440 -1350 l0 -90 -180 0 -180 0 0 90 0 90 180 0 180 0 0 -90z"/>
<path d="M1620 2610 l0 -90 -90 0 -90 0 0 -360 0 -360 -90 0 -90 0 0 -90 0
-90 90 0 90 0 0 -90 0 -90 90 0 90 0 0 -90 0 -90 90 0 90 0 0 90 0 90 360 0
360 0 0 90 0 90 90 0 90 0 0 360 0 360 -90 0 -90 0 0 90 0 90 -90 0 -90 0 0
90 0 90 -360 0 -360 0 0 -90z m0 -900 l0 -90 90 0 90 0 0 -90 0 -90 -90 0 -90
0 0 90 0 90 -90 0 -90 0 0 90 0 90 90 0 90 0 0 -90z"/>
<path d="M1260 1170 l0 -90 90 0 90 0 0 90 0 90 -90 0 -90 0 0 -90z"/>
<path d="M720 990 l0 -90 -90 0 -90 0 0 -90 0 -90 90 0 90 0 0 -90 0 -90 90 0
90 0 0 90 0 90 90 0 90 0 0 90 0 90 -90 0 -90 0 0 90 0 90 -90 0 -90 0 0 -90z
m180 -180 l0 -90 -90 0 -90 0 0 90 0 90 90 0 90 0 0 -90z"/>
</g>
</svg>
